<svg width="566" height="206" viewBox="0 0 566 206" fill="none" xmlns="http://www.w3.org/2000/svg">
<rect x="1" y="1" width="564" height="204" rx="8" fill="#F8FDFF"/>
<rect x="1" y="1" width="564" height="204" rx="8" stroke="#00AEEF" stroke-width="1.5" stroke-dasharray="8 4"/>
<circle cx="283" cy="70.5" r="45.5" fill="#D6F4FF"/>
<mask id="mask0_2776_13060" style="mask-type:alpha" maskUnits="userSpaceOnUse" x="236" y="24" width="94" height="93">
<circle cx="283" cy="70.5" r="45.5" fill="#F5FCFF" stroke="#00AEEF" stroke-width="1.5"/>
</mask>
<g mask="url(#mask0_2776_13060)">
<rect x="252.161" y="49" width="62.6774" height="67" rx="4" fill="white" stroke="#F9FBFC" stroke-width="1.5"/>
<rect x="256.484" y="54.4033" width="32.4194" height="4.32258" rx="1" fill="#F9FBFC"/>
<rect x="256.484" y="63.0486" width="54.0323" height="12.9677" rx="2" fill="white" stroke="#00AEEF" stroke-width="1.5"/>
<rect x="256.484" y="80.3389" width="32.4194" height="4.32258" rx="1" fill="#F9FBFC"/>
<rect x="256.484" y="88.9839" width="54.0323" height="12.9677" rx="2" fill="#F9FBFC"/>
<path d="M295.129 83.1708V79.6089L300.67 78.8174L303.836 79.6089L301.461 82.3793L295.129 83.1708Z" fill="#00AEEF"/>
<path d="M295.112 81.192V74.4639C295.112 74.149 295.237 73.847 295.46 73.6244C295.682 73.4017 295.984 73.2766 296.299 73.2766C296.614 73.2766 296.916 73.4017 297.139 73.6244C297.362 73.847 297.487 74.149 297.487 74.4639V80.4005" fill="#00AEEF"/>
<path d="M295.112 81.192V74.4639C295.112 74.149 295.237 73.847 295.46 73.6244C295.682 73.4017 295.984 73.2766 296.299 73.2766C296.614 73.2766 296.916 73.4017 297.139 73.6244C297.362 73.847 297.487 74.149 297.487 74.4639V80.4005" stroke="white" stroke-width="0.7" stroke-linecap="round" stroke-linejoin="round"/>
<path d="M297.487 80.0048V78.4217C297.487 78.2658 297.517 78.1114 297.577 77.9673C297.637 77.8233 297.724 77.6924 297.834 77.5821C297.945 77.4719 298.075 77.3844 298.22 77.3248C298.364 77.2651 298.518 77.2344 298.674 77.2344C298.83 77.2344 298.984 77.2651 299.128 77.3248C299.272 77.3844 299.403 77.4719 299.513 77.5821C299.624 77.6924 299.711 77.8233 299.771 77.9673C299.83 78.1114 299.861 78.2658 299.861 78.4217V80.4005" fill="#00AEEF"/>
<path d="M297.487 80.0048V78.4217C297.487 78.2658 297.517 78.1114 297.577 77.9673C297.637 77.8233 297.724 77.6924 297.834 77.5821C297.945 77.4719 298.075 77.3844 298.22 77.3248C298.364 77.2651 298.518 77.2344 298.674 77.2344C298.83 77.2344 298.984 77.2651 299.128 77.3248C299.272 77.3844 299.403 77.4719 299.513 77.5821C299.624 77.6924 299.711 77.8233 299.771 77.9673C299.83 78.1114 299.861 78.2658 299.861 78.4217V80.4005" stroke="white" stroke-width="0.7" stroke-linecap="round" stroke-linejoin="round"/>
<path d="M299.861 79.2132C299.861 78.8983 299.986 78.5963 300.209 78.3736C300.432 78.151 300.734 78.0259 301.049 78.0259C301.364 78.0259 301.666 78.151 301.888 78.3736C302.111 78.5963 302.236 78.8983 302.236 79.2132V80.4005" fill="#00AEEF"/>
<path d="M299.861 79.2132C299.861 78.8983 299.986 78.5963 300.209 78.3736C300.432 78.151 300.734 78.0259 301.049 78.0259C301.364 78.0259 301.666 78.151 301.888 78.3736C302.111 78.5963 302.236 78.8983 302.236 79.2132V80.4005" stroke="white" stroke-width="0.7" stroke-linecap="round" stroke-linejoin="round"/>
<path d="M302.236 80.0047C302.236 79.6898 302.361 79.3878 302.584 79.1651C302.806 78.9425 303.108 78.8174 303.423 78.8174C303.738 78.8174 304.04 78.9425 304.263 79.1651C304.485 79.3878 304.61 79.6898 304.61 80.0047V83.5666C304.61 84.8262 304.11 86.0342 303.219 86.9248C302.329 87.8155 301.121 88.3158 299.861 88.3158H298.278H298.443C297.656 88.316 296.882 88.1208 296.19 87.7477C295.497 87.3747 294.908 86.8356 294.476 86.1787C294.424 86.0997 294.372 86.0205 294.32 85.9412C294.073 85.5621 293.207 84.051 291.719 81.4073C291.568 81.1378 291.527 80.8198 291.607 80.5209C291.686 80.222 291.878 79.9658 292.144 79.8068C292.426 79.6373 292.757 79.5671 293.084 79.6072C293.411 79.6474 293.715 79.7956 293.948 80.0284L295.112 81.192" fill="#00AEEF"/>
<path d="M302.236 80.0047C302.236 79.6898 302.361 79.3878 302.584 79.1651C302.806 78.9425 303.108 78.8174 303.423 78.8174C303.738 78.8174 304.04 78.9425 304.263 79.1651C304.485 79.3878 304.61 79.6898 304.61 80.0047V83.5666C304.61 84.8262 304.11 86.0342 303.219 86.9248C302.329 87.8155 301.121 88.3158 299.861 88.3158H298.278H298.443C297.656 88.316 296.882 88.1208 296.19 87.7477C295.497 87.3747 294.908 86.8356 294.476 86.1787C294.424 86.0997 294.372 86.0205 294.32 85.9412C294.073 85.5621 293.207 84.051 291.719 81.4073C291.568 81.1378 291.527 80.8198 291.607 80.5209C291.686 80.222 291.878 79.9658 292.144 79.8068C292.426 79.6373 292.757 79.5671 293.084 79.6072C293.411 79.6474 293.715 79.7956 293.948 80.0284L295.112 81.192" stroke="white" stroke-width="0.7" stroke-linecap="round" stroke-linejoin="round"/>
</g>
<circle cx="283" cy="70.5" r="45.5" stroke="#00AEEF" stroke-width="1.5"/>
<path d="M201.148 137.104C202.264 137.092 203.206 137.272 203.974 137.644C204.742 138.004 205.354 138.508 205.81 139.156C206.278 139.804 206.614 140.554 206.818 141.406C207.022 142.258 207.124 143.164 207.124 144.124C207.124 145.12 207.004 146.044 206.764 146.896C206.536 147.736 206.176 148.474 205.684 149.11C205.204 149.734 204.58 150.22 203.812 150.568C203.056 150.904 202.15 151.066 201.094 151.054C200.53 151.042 199.924 151.03 199.276 151.018C198.64 151.018 198.004 151.012 197.368 151V137.176C197.992 137.164 198.634 137.152 199.294 137.14C199.954 137.128 200.572 137.116 201.148 137.104ZM201.112 149.2C202.048 149.2 202.786 148.978 203.326 148.534C203.866 148.078 204.25 147.466 204.478 146.698C204.706 145.93 204.82 145.078 204.82 144.142C204.82 143.47 204.76 142.828 204.64 142.216C204.52 141.592 204.316 141.04 204.028 140.56C203.752 140.068 203.38 139.684 202.912 139.408C202.444 139.12 201.856 138.976 201.148 138.976C200.884 138.976 200.572 138.976 200.212 138.976C199.852 138.976 199.516 138.982 199.204 138.994L199.546 138.634V149.542L199.204 149.182C199.516 149.194 199.84 149.2 200.176 149.2C200.524 149.2 200.836 149.2 201.112 149.2ZM209.109 151V140.686H211.107L211.233 143.71H210.765C210.993 142.702 211.359 141.916 211.863 141.352C212.379 140.788 213.057 140.506 213.897 140.506C213.993 140.506 214.083 140.506 214.167 140.506C214.263 140.506 214.359 140.518 214.455 140.542L214.221 142.666C213.909 142.534 213.609 142.468 213.321 142.468C212.913 142.468 212.547 142.594 212.223 142.846C211.911 143.098 211.665 143.452 211.485 143.908C211.317 144.364 211.233 144.904 211.233 145.528V151H209.109ZM220.187 148.948L220.601 148.966C220.469 149.494 220.247 149.926 219.935 150.262C219.623 150.598 219.263 150.844 218.855 151C218.459 151.168 218.051 151.252 217.631 151.252C217.079 151.252 216.563 151.132 216.083 150.892C215.615 150.64 215.243 150.28 214.967 149.812C214.691 149.344 214.553 148.774 214.553 148.102C214.553 147.118 214.943 146.338 215.723 145.762C216.503 145.174 217.571 144.88 218.927 144.88C219.191 144.88 219.497 144.892 219.845 144.916C220.205 144.928 220.523 144.964 220.799 145.024V146.428C220.499 146.38 220.211 146.35 219.935 146.338C219.671 146.314 219.365 146.302 219.017 146.302C218.477 146.302 218.033 146.374 217.685 146.518C217.349 146.662 217.103 146.866 216.947 147.13C216.791 147.394 216.713 147.718 216.713 148.102C216.713 148.558 216.839 148.912 217.091 149.164C217.343 149.416 217.679 149.542 218.099 149.542C218.447 149.542 218.753 149.464 219.017 149.308C219.281 149.152 219.491 148.906 219.647 148.57C219.803 148.222 219.881 147.772 219.881 147.22V144.034C219.881 143.422 219.725 142.978 219.413 142.702C219.101 142.426 218.693 142.288 218.189 142.288C217.817 142.288 217.409 142.366 216.965 142.522C216.521 142.678 216.077 142.882 215.633 143.134L214.895 141.586C215.447 141.25 216.059 140.986 216.731 140.794C217.403 140.602 218.039 140.506 218.639 140.506C219.311 140.506 219.899 140.632 220.403 140.884C220.907 141.136 221.303 141.52 221.591 142.036C221.879 142.54 222.023 143.182 222.023 143.962V148.462C222.023 148.858 222.077 149.146 222.185 149.326C222.305 149.506 222.521 149.596 222.833 149.596C222.869 149.596 222.911 149.596 222.959 149.596C223.019 149.596 223.073 149.59 223.121 149.578L223.193 151.144C223.025 151.18 222.857 151.204 222.689 151.216C222.533 151.24 222.383 151.252 222.239 151.252C221.591 151.252 221.087 151.072 220.727 150.712C220.367 150.34 220.187 149.752 220.187 148.948ZM229.886 144.376C229.886 143.896 229.808 143.5 229.652 143.188C229.496 142.876 229.286 142.642 229.022 142.486C228.758 142.33 228.47 142.252 228.158 142.252C227.846 142.252 227.558 142.33 227.294 142.486C227.042 142.642 226.832 142.876 226.664 143.188C226.508 143.5 226.43 143.902 226.43 144.394C226.43 144.85 226.508 145.234 226.664 145.546C226.832 145.858 227.048 146.092 227.312 146.248C227.576 146.392 227.864 146.464 228.176 146.464C228.488 146.464 228.77 146.392 229.022 146.248C229.286 146.092 229.496 145.858 229.652 145.546C229.808 145.234 229.886 144.844 229.886 144.376ZM232.01 144.394C232.01 145.162 231.842 145.828 231.506 146.392C231.17 146.944 230.708 147.376 230.12 147.688C229.544 147.988 228.896 148.138 228.176 148.138C227.444 148.138 226.784 147.988 226.196 147.688C225.62 147.376 225.164 146.944 224.828 146.392C224.492 145.828 224.324 145.168 224.324 144.412C224.324 143.62 224.486 142.942 224.81 142.378C225.146 141.802 225.608 141.364 226.196 141.064C226.784 140.752 227.444 140.596 228.176 140.596C228.884 140.596 229.526 140.758 230.102 141.082C230.678 141.406 231.14 141.85 231.488 142.414C231.836 142.978 232.01 143.638 232.01 144.394ZM233.054 140.596V142.252L230.012 142.144L228.176 140.776L233.054 140.596ZM226.484 150.118L227.276 150.802C226.82 151.03 226.472 151.282 226.232 151.558C226.004 151.846 225.89 152.134 225.89 152.422C225.89 152.818 226.088 153.13 226.484 153.358C226.88 153.598 227.432 153.718 228.14 153.718C228.932 153.718 229.574 153.574 230.066 153.286C230.558 153.01 230.804 152.638 230.804 152.17C230.804 151.81 230.636 151.534 230.3 151.342C229.976 151.162 229.532 151.078 228.968 151.09L227.042 151.126C226.478 151.138 226.004 151.048 225.62 150.856C225.236 150.664 224.942 150.412 224.738 150.1C224.546 149.788 224.45 149.452 224.45 149.092C224.45 148.624 224.618 148.168 224.954 147.724C225.302 147.28 225.83 146.962 226.538 146.77L226.844 147.85C226.616 147.946 226.442 148.072 226.322 148.228C226.214 148.384 226.16 148.528 226.16 148.66C226.16 148.9 226.256 149.086 226.448 149.218C226.652 149.338 226.934 149.392 227.294 149.38L229.22 149.344C230.408 149.32 231.314 149.566 231.938 150.082C232.574 150.598 232.892 151.24 232.892 152.008C232.892 152.596 232.7 153.148 232.316 153.664C231.944 154.192 231.386 154.612 230.642 154.924C229.898 155.236 228.974 155.392 227.87 155.392C227.15 155.392 226.49 155.296 225.89 155.104C225.29 154.912 224.81 154.63 224.45 154.258C224.09 153.886 223.91 153.436 223.91 152.908C223.91 152.392 224.126 151.888 224.558 151.396C224.99 150.916 225.632 150.49 226.484 150.118ZM243.207 151.252C242.271 151.252 241.437 151.078 240.705 150.73C239.973 150.382 239.397 149.89 238.977 149.254C238.557 148.606 238.347 147.856 238.347 147.004C238.347 146.404 238.491 145.858 238.779 145.366C239.067 144.874 239.427 144.412 239.859 143.98C240.303 143.548 240.777 143.134 241.281 142.738C241.785 142.33 242.253 141.922 242.685 141.514C243.129 141.106 243.495 140.68 243.783 140.236C244.071 139.78 244.215 139.294 244.215 138.778C244.215 138.334 244.101 138.004 243.873 137.788C243.645 137.572 243.351 137.464 242.991 137.464C242.595 137.464 242.265 137.578 242.001 137.806C241.749 138.034 241.623 138.364 241.623 138.796C241.623 139.168 241.737 139.6 241.965 140.092C242.193 140.572 242.505 141.1 242.901 141.676C243.309 142.252 243.789 142.858 244.341 143.494C244.905 144.13 245.511 144.796 246.159 145.492C246.807 146.176 247.491 146.872 248.211 147.58C248.931 148.288 249.657 149.002 250.389 149.722L249.021 151.126C248.241 150.37 247.461 149.62 246.681 148.876C245.913 148.12 245.169 147.382 244.449 146.662C243.741 145.942 243.087 145.234 242.487 144.538C241.887 143.842 241.359 143.164 240.903 142.504C240.447 141.844 240.093 141.208 239.841 140.596C239.589 139.984 239.463 139.396 239.463 138.832C239.463 138.184 239.625 137.644 239.949 137.212C240.285 136.768 240.723 136.438 241.263 136.222C241.803 136.006 242.379 135.898 242.991 135.898C243.591 135.898 244.149 136.006 244.665 136.222C245.181 136.426 245.595 136.744 245.907 137.176C246.219 137.596 246.375 138.13 246.375 138.778C246.375 139.39 246.231 139.954 245.943 140.47C245.667 140.974 245.307 141.448 244.863 141.892C244.419 142.336 243.945 142.762 243.441 143.17C242.949 143.578 242.481 143.986 242.037 144.394C241.593 144.79 241.227 145.204 240.939 145.636C240.663 146.056 240.525 146.5 240.525 146.968C240.525 147.52 240.645 147.994 240.885 148.39C241.125 148.774 241.449 149.068 241.857 149.272C242.277 149.476 242.751 149.578 243.279 149.578C243.855 149.578 244.395 149.464 244.899 149.236C245.415 148.996 245.859 148.63 246.231 148.138C246.615 147.646 246.915 147.016 247.131 146.248C247.347 145.48 247.455 144.562 247.455 143.494H249.543C249.543 144.778 249.381 145.906 249.057 146.878C248.745 147.838 248.301 148.642 247.725 149.29C247.161 149.938 246.489 150.43 245.709 150.766C244.941 151.09 244.107 151.252 243.207 151.252ZM260.474 137.104C261.59 137.092 262.532 137.272 263.3 137.644C264.068 138.004 264.68 138.508 265.136 139.156C265.604 139.804 265.94 140.554 266.144 141.406C266.348 142.258 266.45 143.164 266.45 144.124C266.45 145.12 266.33 146.044 266.09 146.896C265.862 147.736 265.502 148.474 265.01 149.11C264.53 149.734 263.906 150.22 263.138 150.568C262.382 150.904 261.476 151.066 260.42 151.054C259.856 151.042 259.25 151.03 258.602 151.018C257.966 151.018 257.33 151.012 256.694 151V137.176C257.318 137.164 257.96 137.152 258.62 137.14C259.28 137.128 259.898 137.116 260.474 137.104ZM260.438 149.2C261.374 149.2 262.112 148.978 262.652 148.534C263.192 148.078 263.576 147.466 263.804 146.698C264.032 145.93 264.146 145.078 264.146 144.142C264.146 143.47 264.086 142.828 263.966 142.216C263.846 141.592 263.642 141.04 263.354 140.56C263.078 140.068 262.706 139.684 262.238 139.408C261.77 139.12 261.182 138.976 260.474 138.976C260.21 138.976 259.898 138.976 259.538 138.976C259.178 138.976 258.842 138.982 258.53 138.994L258.872 138.634V149.542L258.53 149.182C258.842 149.194 259.166 149.2 259.502 149.2C259.85 149.2 260.162 149.2 260.438 149.2ZM268.436 151V140.686H270.434L270.56 143.71H270.092C270.32 142.702 270.686 141.916 271.19 141.352C271.706 140.788 272.384 140.506 273.224 140.506C273.32 140.506 273.41 140.506 273.494 140.506C273.59 140.506 273.686 140.518 273.782 140.542L273.548 142.666C273.236 142.534 272.936 142.468 272.648 142.468C272.24 142.468 271.874 142.594 271.55 142.846C271.238 143.098 270.992 143.452 270.812 143.908C270.644 144.364 270.56 144.904 270.56 145.528V151H268.436ZM281.024 145.924C281.024 145.144 280.934 144.478 280.754 143.926C280.574 143.374 280.31 142.954 279.962 142.666C279.626 142.378 279.218 142.234 278.738 142.234C278.27 142.234 277.856 142.378 277.496 142.666C277.148 142.954 276.878 143.374 276.686 143.926C276.506 144.466 276.416 145.12 276.416 145.888C276.416 146.656 276.506 147.31 276.686 147.85C276.866 148.39 277.13 148.804 277.478 149.092C277.826 149.38 278.234 149.524 278.702 149.524C279.194 149.524 279.614 149.386 279.962 149.11C280.31 148.822 280.574 148.408 280.754 147.868C280.934 147.316 281.024 146.668 281.024 145.924ZM283.22 145.888C283.22 146.98 283.04 147.934 282.68 148.75C282.32 149.554 281.798 150.172 281.114 150.604C280.442 151.036 279.62 151.252 278.648 151.252C277.664 151.252 276.842 151.03 276.182 150.586C275.534 150.13 275.048 149.506 274.724 148.714C274.4 147.91 274.238 146.98 274.238 145.924C274.238 144.832 274.418 143.878 274.778 143.062C275.138 142.246 275.66 141.616 276.344 141.172C277.028 140.728 277.844 140.506 278.792 140.506C279.776 140.506 280.592 140.728 281.24 141.172C281.9 141.616 282.392 142.246 282.716 143.062C283.052 143.866 283.22 144.808 283.22 145.888ZM285.241 155.122L285.259 140.758H287.239L287.365 143.422H286.591C286.891 142.426 287.329 141.694 287.905 141.226C288.493 140.746 289.159 140.506 289.903 140.506C290.587 140.506 291.205 140.698 291.757 141.082C292.309 141.454 292.747 142.006 293.071 142.738C293.407 143.458 293.575 144.334 293.575 145.366C293.575 146.578 293.383 147.628 292.999 148.516C292.627 149.392 292.093 150.07 291.397 150.55C290.701 151.018 289.885 151.252 288.949 151.252C288.373 151.252 287.809 151.168 287.257 151C286.717 150.844 286.171 150.616 285.619 150.316L287.293 149.146C287.569 149.266 287.851 149.362 288.139 149.434C288.427 149.494 288.685 149.524 288.913 149.524C289.477 149.524 289.939 149.356 290.299 149.02C290.671 148.672 290.947 148.186 291.127 147.562C291.307 146.938 291.397 146.212 291.397 145.384C291.397 144.664 291.301 144.07 291.109 143.602C290.929 143.134 290.683 142.786 290.371 142.558C290.071 142.318 289.741 142.198 289.381 142.198C289.021 142.198 288.691 142.312 288.391 142.54C288.091 142.756 287.845 143.08 287.653 143.512C287.473 143.944 287.383 144.484 287.383 145.132L287.365 155.122H285.241ZM308.129 148.264L308.957 149.866C308.201 150.346 307.463 150.7 306.743 150.928C306.023 151.144 305.333 151.252 304.673 151.252C303.581 151.252 302.621 150.97 301.793 150.406C300.965 149.842 300.311 149.032 299.831 147.976C299.363 146.908 299.129 145.63 299.129 144.142C299.129 142.942 299.273 141.892 299.561 140.992C299.861 140.08 300.263 139.324 300.767 138.724C301.283 138.124 301.871 137.674 302.531 137.374C303.203 137.074 303.911 136.924 304.655 136.924C305.795 136.924 306.761 137.212 307.553 137.788C308.345 138.352 308.909 139.192 309.245 140.308L307.121 140.848C306.869 140.14 306.527 139.624 306.095 139.3C305.675 138.976 305.189 138.814 304.637 138.814C303.653 138.814 302.873 139.27 302.297 140.182C301.733 141.094 301.451 142.408 301.451 144.124C301.451 145.816 301.763 147.106 302.387 147.994C303.023 148.87 303.887 149.308 304.979 149.308C305.447 149.308 305.939 149.224 306.455 149.056C306.983 148.888 307.541 148.624 308.129 148.264ZM313.886 151.252C313.226 151.252 312.554 151.144 311.87 150.928C311.186 150.712 310.52 150.37 309.872 149.902L310.736 148.354C311.252 148.69 311.792 148.942 312.356 149.11C312.932 149.278 313.46 149.362 313.94 149.362C314.528 149.362 315.014 149.188 315.398 148.84C315.794 148.48 315.992 147.988 315.992 147.364C315.992 146.944 315.884 146.596 315.668 146.32C315.464 146.032 315.182 145.786 314.822 145.582C314.474 145.378 314.09 145.186 313.67 145.006C313.262 144.826 312.842 144.634 312.41 144.43C311.99 144.214 311.6 143.956 311.24 143.656C310.892 143.344 310.61 142.966 310.394 142.522C310.19 142.066 310.088 141.508 310.088 140.848C310.088 139.984 310.298 139.264 310.718 138.688C311.138 138.1 311.672 137.662 312.32 137.374C312.98 137.074 313.658 136.924 314.354 136.924C314.894 136.924 315.416 137.008 315.92 137.176C316.424 137.344 316.874 137.596 317.27 137.932C317.666 138.268 317.966 138.7 318.17 139.228L316.55 140.092C316.298 139.636 315.962 139.3 315.542 139.084C315.134 138.856 314.714 138.742 314.282 138.742C313.934 138.742 313.604 138.82 313.292 138.976C312.992 139.12 312.746 139.342 312.554 139.642C312.362 139.93 312.266 140.29 312.266 140.722C312.266 141.118 312.374 141.454 312.59 141.73C312.806 142.006 313.088 142.246 313.436 142.45C313.796 142.642 314.186 142.828 314.606 143.008C315.026 143.188 315.446 143.386 315.866 143.602C316.298 143.818 316.688 144.076 317.036 144.376C317.384 144.676 317.666 145.048 317.882 145.492C318.098 145.936 318.206 146.482 318.206 147.13C318.206 148.018 318.008 148.774 317.612 149.398C317.228 150.01 316.706 150.472 316.046 150.784C315.398 151.096 314.678 151.252 313.886 151.252ZM322.677 151L318.609 137.176H320.967L323.271 145.348C323.355 145.66 323.451 146.02 323.559 146.428C323.667 146.824 323.775 147.238 323.883 147.67C323.991 148.102 324.087 148.522 324.171 148.93C324.267 149.338 324.339 149.692 324.387 149.992H323.937C324.009 149.68 324.087 149.32 324.171 148.912C324.267 148.492 324.357 148.066 324.441 147.634C324.537 147.19 324.633 146.764 324.729 146.356C324.837 145.948 324.933 145.588 325.017 145.276L327.357 137.176H329.625L325.503 151H322.677ZM341.01 151V144.268C341.01 143.596 340.866 143.086 340.578 142.738C340.302 142.378 339.93 142.198 339.462 142.198C339.102 142.198 338.76 142.318 338.436 142.558C338.124 142.786 337.866 143.146 337.662 143.638C337.47 144.118 337.374 144.748 337.374 145.528V151H335.25V136.15H337.374V143.728H336.6C336.876 142.648 337.338 141.844 337.986 141.316C338.646 140.776 339.366 140.506 340.146 140.506C340.722 140.506 341.232 140.638 341.676 140.902C342.132 141.166 342.486 141.562 342.738 142.09C343.002 142.618 343.134 143.278 343.134 144.07V151H341.01ZM349.829 151.252C348.917 151.252 348.101 151.042 347.381 150.622C346.673 150.202 346.121 149.584 345.725 148.768C345.329 147.952 345.131 146.962 345.131 145.798C345.131 144.646 345.323 143.68 345.707 142.9C346.103 142.12 346.631 141.526 347.291 141.118C347.963 140.71 348.701 140.506 349.505 140.506C350.465 140.506 351.239 140.716 351.827 141.136C352.415 141.544 352.841 142.144 353.105 142.936C353.369 143.728 353.501 144.664 353.501 145.744V146.41H346.319L346.355 144.844L351.359 144.79C351.359 144.406 351.317 144.058 351.233 143.746C351.161 143.422 351.047 143.146 350.891 142.918C350.747 142.678 350.555 142.492 350.315 142.36C350.087 142.228 349.811 142.162 349.487 142.162C348.839 142.162 348.311 142.48 347.903 143.116C347.507 143.752 347.309 144.67 347.309 145.87C347.309 147.07 347.561 147.982 348.065 148.606C348.569 149.218 349.229 149.524 350.045 149.524C350.477 149.524 350.903 149.464 351.323 149.344C351.755 149.212 352.205 149.026 352.673 148.786L353.303 150.208C352.739 150.568 352.157 150.832 351.557 151C350.969 151.168 350.393 151.252 349.829 151.252ZM355.307 151V140.686H357.305L357.431 143.71H356.963C357.191 142.702 357.557 141.916 358.061 141.352C358.577 140.788 359.255 140.506 360.095 140.506C360.191 140.506 360.281 140.506 360.365 140.506C360.461 140.506 360.557 140.518 360.653 140.542L360.419 142.666C360.107 142.534 359.807 142.468 359.519 142.468C359.111 142.468 358.745 142.594 358.421 142.846C358.109 143.098 357.863 143.452 357.683 143.908C357.515 144.364 357.431 144.904 357.431 145.528V151H355.307ZM365.825 151.252C364.913 151.252 364.097 151.042 363.377 150.622C362.669 150.202 362.117 149.584 361.721 148.768C361.325 147.952 361.127 146.962 361.127 145.798C361.127 144.646 361.319 143.68 361.703 142.9C362.099 142.12 362.627 141.526 363.287 141.118C363.959 140.71 364.697 140.506 365.501 140.506C366.461 140.506 367.235 140.716 367.823 141.136C368.411 141.544 368.837 142.144 369.101 142.936C369.365 143.728 369.497 144.664 369.497 145.744V146.41H362.315L362.351 144.844L367.355 144.79C367.355 144.406 367.313 144.058 367.229 143.746C367.157 143.422 367.043 143.146 366.887 142.918C366.743 142.678 366.551 142.492 366.311 142.36C366.083 142.228 365.807 142.162 365.483 142.162C364.835 142.162 364.307 142.48 363.899 143.116C363.503 143.752 363.305 144.67 363.305 145.87C363.305 147.07 363.557 147.982 364.061 148.606C364.565 149.218 365.225 149.524 366.041 149.524C366.473 149.524 366.899 149.464 367.319 149.344C367.751 149.212 368.201 149.026 368.669 148.786L369.299 150.208C368.735 150.568 368.153 150.832 367.553 151C366.965 151.168 366.389 151.252 365.825 151.252Z" fill="#232931"/>
<path d="M226.332 172.472C226.332 171.757 226.241 171.133 226.06 170.6C225.879 170.067 225.617 169.656 225.276 169.368C224.935 169.08 224.519 168.936 224.028 168.936C223.537 168.936 223.116 169.085 222.764 169.384C222.412 169.672 222.14 170.083 221.948 170.616C221.767 171.139 221.676 171.752 221.676 172.456C221.676 173.171 221.767 173.789 221.948 174.312C222.129 174.835 222.391 175.24 222.732 175.528C223.084 175.816 223.505 175.96 223.996 175.96C224.497 175.96 224.919 175.816 225.26 175.528C225.612 175.24 225.879 174.835 226.06 174.312C226.241 173.789 226.332 173.176 226.332 172.472ZM227.868 172.456C227.868 173.405 227.713 174.237 227.404 174.952C227.105 175.667 226.663 176.221 226.076 176.616C225.5 177 224.791 177.192 223.948 177.192C223.095 177.192 222.385 176.995 221.82 176.6C221.255 176.195 220.833 175.64 220.556 174.936C220.279 174.221 220.14 173.4 220.14 172.472C220.14 171.533 220.295 170.707 220.604 169.992C220.913 169.267 221.361 168.707 221.948 168.312C222.545 167.907 223.255 167.704 224.076 167.704C224.929 167.704 225.633 167.907 226.188 168.312C226.753 168.707 227.175 169.261 227.452 169.976C227.729 170.691 227.868 171.517 227.868 172.456ZM229.796 177V167.848H231.204L231.268 170.424H230.916C231.108 169.571 231.434 168.904 231.892 168.424C232.351 167.944 232.927 167.704 233.62 167.704C233.706 167.704 233.791 167.709 233.876 167.72C233.972 167.72 234.063 167.736 234.148 167.768L233.988 169.224C233.732 169.128 233.487 169.08 233.252 169.08C232.868 169.08 232.527 169.203 232.228 169.448C231.93 169.683 231.695 170.013 231.524 170.44C231.364 170.867 231.284 171.368 231.284 171.944V177H229.796ZM234.62 179.512L234.028 179.08C234.145 178.909 234.263 178.707 234.38 178.472C234.508 178.237 234.62 177.997 234.716 177.752C234.823 177.517 234.887 177.315 234.908 177.144C234.641 177.069 234.444 176.931 234.316 176.728C234.188 176.525 234.124 176.312 234.124 176.088C234.124 175.704 234.236 175.416 234.46 175.224C234.684 175.021 234.929 174.92 235.196 174.92C235.484 174.92 235.74 175.027 235.964 175.24C236.199 175.443 236.316 175.763 236.316 176.2C236.316 176.52 236.241 176.872 236.092 177.256C235.953 177.64 235.756 178.029 235.5 178.424C235.255 178.819 234.961 179.181 234.62 179.512ZM244.91 177.192C243.801 177.192 242.926 176.781 242.286 175.96C241.646 175.128 241.326 173.949 241.326 172.424C241.326 171.443 241.476 170.6 241.774 169.896C242.084 169.192 242.51 168.653 243.054 168.28C243.609 167.896 244.249 167.704 244.974 167.704C245.657 167.704 246.249 167.885 246.75 168.248C247.252 168.6 247.657 169.133 247.966 169.848L246.734 170.392C246.542 169.944 246.297 169.592 245.998 169.336C245.7 169.08 245.353 168.952 244.958 168.952C244.276 168.952 243.758 169.267 243.406 169.896C243.054 170.525 242.878 171.379 242.878 172.456C242.878 173.608 243.086 174.477 243.502 175.064C243.929 175.64 244.51 175.928 245.246 175.928C245.534 175.928 245.854 175.88 246.206 175.784C246.558 175.677 246.942 175.512 247.358 175.288L247.806 176.344C247.273 176.632 246.766 176.845 246.286 176.984C245.806 177.123 245.348 177.192 244.91 177.192ZM249.312 175.08V163.8H250.8V174.92C250.8 175.272 250.864 175.533 250.992 175.704C251.12 175.875 251.307 175.96 251.552 175.96C251.669 175.96 251.797 175.949 251.936 175.928C252.075 175.896 252.213 175.859 252.352 175.816L252.368 176.984C252.176 177.048 251.984 177.096 251.792 177.128C251.611 177.171 251.424 177.192 251.232 177.192C250.645 177.192 250.176 177.016 249.824 176.664C249.483 176.301 249.312 175.773 249.312 175.08ZM253.921 177V167.896H255.409V177H253.921ZM254.657 166.36C254.38 166.36 254.145 166.264 253.953 166.072C253.761 165.88 253.665 165.608 253.665 165.256C253.665 164.904 253.761 164.637 253.953 164.456C254.156 164.264 254.396 164.168 254.673 164.168C254.951 164.168 255.185 164.264 255.377 164.456C255.58 164.637 255.681 164.904 255.681 165.256C255.681 165.597 255.58 165.869 255.377 166.072C255.185 166.264 254.945 166.36 254.657 166.36ZM260.91 177.192C259.801 177.192 258.926 176.781 258.286 175.96C257.646 175.128 257.326 173.949 257.326 172.424C257.326 171.443 257.476 170.6 257.774 169.896C258.084 169.192 258.51 168.653 259.054 168.28C259.609 167.896 260.249 167.704 260.974 167.704C261.657 167.704 262.249 167.885 262.75 168.248C263.252 168.6 263.657 169.133 263.966 169.848L262.734 170.392C262.542 169.944 262.297 169.592 261.998 169.336C261.7 169.08 261.353 168.952 260.958 168.952C260.276 168.952 259.758 169.267 259.406 169.896C259.054 170.525 258.878 171.379 258.878 172.456C258.878 173.608 259.086 174.477 259.502 175.064C259.929 175.64 260.51 175.928 261.246 175.928C261.534 175.928 261.854 175.88 262.206 175.784C262.558 175.677 262.942 175.512 263.358 175.288L263.806 176.344C263.273 176.632 262.766 176.845 262.286 176.984C261.806 177.123 261.348 177.192 260.91 177.192ZM266.754 177H265.25V163.8H266.754V177ZM270.194 176.088L268.098 172.328H265.97V171.112L268.37 171.096L270.434 167.896H271.954L269.122 172.216V171.48L271.426 175.512C271.543 175.715 271.645 175.853 271.73 175.928C271.815 176.003 271.917 176.04 272.034 176.04C272.077 176.04 272.114 176.04 272.146 176.04C272.189 176.04 272.242 176.035 272.306 176.024V177.128C272.21 177.149 272.114 177.165 272.018 177.176C271.922 177.187 271.826 177.192 271.73 177.192C271.367 177.192 271.074 177.101 270.85 176.92C270.626 176.739 270.407 176.461 270.194 176.088ZM279.968 177.192C279.306 177.192 278.778 176.973 278.384 176.536C277.989 176.099 277.792 175.443 277.792 174.568V165.432H279.296V174.36C279.296 174.893 279.397 175.293 279.6 175.56C279.802 175.827 280.074 175.96 280.416 175.96C280.565 175.96 280.72 175.933 280.88 175.88C281.04 175.827 281.21 175.752 281.392 175.656L281.824 176.6C281.482 176.803 281.157 176.952 280.848 177.048C280.549 177.144 280.256 177.192 279.968 177.192ZM276.416 169.048V167.896H281.392V169.048H276.416ZM288.801 172.472C288.801 171.757 288.71 171.133 288.529 170.6C288.347 170.067 288.086 169.656 287.745 169.368C287.403 169.08 286.987 168.936 286.497 168.936C286.006 168.936 285.585 169.085 285.233 169.384C284.881 169.672 284.609 170.083 284.417 170.616C284.235 171.139 284.145 171.752 284.145 172.456C284.145 173.171 284.235 173.789 284.417 174.312C284.598 174.835 284.859 175.24 285.201 175.528C285.553 175.816 285.974 175.96 286.465 175.96C286.966 175.96 287.387 175.816 287.729 175.528C288.081 175.24 288.347 174.835 288.529 174.312C288.71 173.789 288.801 173.176 288.801 172.472ZM290.337 172.456C290.337 173.405 290.182 174.237 289.873 174.952C289.574 175.667 289.131 176.221 288.545 176.616C287.969 177 287.259 177.192 286.417 177.192C285.563 177.192 284.854 176.995 284.289 176.6C283.723 176.195 283.302 175.64 283.025 174.936C282.747 174.221 282.609 173.4 282.609 172.472C282.609 171.533 282.763 170.707 283.073 169.992C283.382 169.267 283.83 168.707 284.417 168.312C285.014 167.907 285.723 167.704 286.545 167.704C287.398 167.704 288.102 167.907 288.657 168.312C289.222 168.707 289.643 169.261 289.921 169.976C290.198 170.691 290.337 171.517 290.337 172.456ZM298.978 177.192C298.455 177.192 297.922 177.123 297.378 176.984C296.845 176.835 296.354 176.643 295.906 176.408V163.8H297.41L297.442 170.232H296.834C297.111 169.357 297.506 168.717 298.018 168.312C298.53 167.907 299.111 167.704 299.762 167.704C300.381 167.704 300.93 167.875 301.41 168.216C301.901 168.557 302.285 169.048 302.562 169.688C302.85 170.328 302.994 171.101 302.994 172.008C302.994 173.064 302.823 173.981 302.482 174.76C302.151 175.539 301.682 176.141 301.074 176.568C300.477 176.984 299.778 177.192 298.978 177.192ZM298.962 175.96C299.506 175.96 299.959 175.795 300.322 175.464C300.695 175.133 300.973 174.675 301.154 174.088C301.346 173.491 301.442 172.803 301.442 172.024C301.442 171.331 301.346 170.755 301.154 170.296C300.962 169.827 300.711 169.48 300.402 169.256C300.093 169.021 299.767 168.904 299.426 168.904C299.053 168.904 298.711 169.016 298.402 169.24C298.103 169.453 297.863 169.768 297.682 170.184C297.501 170.6 297.41 171.117 297.41 171.736L297.394 175.576C297.671 175.704 297.943 175.8 298.21 175.864C298.487 175.928 298.738 175.96 298.962 175.96ZM304.968 177V167.848H306.376L306.44 170.424H306.088C306.28 169.571 306.606 168.904 307.064 168.424C307.523 167.944 308.099 167.704 308.792 167.704C308.878 167.704 308.963 167.709 309.048 167.72C309.144 167.72 309.235 167.736 309.32 167.768L309.16 169.224C308.904 169.128 308.659 169.08 308.424 169.08C308.04 169.08 307.699 169.203 307.4 169.448C307.102 169.683 306.867 170.013 306.696 170.44C306.536 170.867 306.456 171.368 306.456 171.944V177H304.968ZM315.973 172.472C315.973 171.757 315.882 171.133 315.701 170.6C315.519 170.067 315.258 169.656 314.917 169.368C314.575 169.08 314.159 168.936 313.669 168.936C313.178 168.936 312.757 169.085 312.405 169.384C312.053 169.672 311.781 170.083 311.589 170.616C311.407 171.139 311.317 171.752 311.317 172.456C311.317 173.171 311.407 173.789 311.589 174.312C311.77 174.835 312.031 175.24 312.373 175.528C312.725 175.816 313.146 175.96 313.637 175.96C314.138 175.96 314.559 175.816 314.901 175.528C315.253 175.24 315.519 174.835 315.701 174.312C315.882 173.789 315.973 173.176 315.973 172.472ZM317.509 172.456C317.509 173.405 317.354 174.237 317.045 174.952C316.746 175.667 316.303 176.221 315.717 176.616C315.141 177 314.431 177.192 313.589 177.192C312.735 177.192 312.026 176.995 311.461 176.6C310.895 176.195 310.474 175.64 310.197 174.936C309.919 174.221 309.781 173.4 309.781 172.472C309.781 171.533 309.935 170.707 310.245 169.992C310.554 169.267 311.002 168.707 311.589 168.312C312.186 167.907 312.895 167.704 313.717 167.704C314.57 167.704 315.274 167.907 315.829 168.312C316.394 168.707 316.815 169.261 317.093 169.976C317.37 170.691 317.509 171.517 317.509 172.456ZM321.069 177L318.205 167.896H319.725L321.965 175.576H321.485L323.837 168.104L325.229 168.04L327.485 175.576H327.021L329.357 167.896H330.717L327.741 177H326.589L324.349 169.688H324.589L322.221 177H321.069ZM334.205 177.192C333.725 177.192 333.234 177.112 332.733 176.952C332.242 176.781 331.783 176.536 331.357 176.216L331.933 175.256C332.274 175.491 332.642 175.672 333.037 175.8C333.442 175.928 333.821 175.992 334.173 175.992C334.599 175.992 334.962 175.875 335.261 175.64C335.559 175.405 335.709 175.059 335.709 174.6C335.709 174.269 335.613 173.997 335.421 173.784C335.229 173.56 334.978 173.368 334.669 173.208C334.359 173.048 334.029 172.893 333.677 172.744C333.335 172.584 333.01 172.397 332.701 172.184C332.391 171.971 332.141 171.704 331.949 171.384C331.757 171.053 331.661 170.637 331.661 170.136C331.661 169.624 331.799 169.187 332.077 168.824C332.354 168.461 332.711 168.184 333.149 167.992C333.597 167.8 334.061 167.704 334.541 167.704C335.074 167.704 335.591 167.827 336.093 168.072C336.594 168.307 336.978 168.685 337.245 169.208L336.221 169.8C336.039 169.48 335.794 169.245 335.485 169.096C335.175 168.947 334.866 168.872 334.557 168.872C334.311 168.872 334.082 168.92 333.869 169.016C333.655 169.101 333.479 169.24 333.341 169.432C333.213 169.613 333.149 169.843 333.149 170.12C333.149 170.44 333.245 170.707 333.437 170.92C333.629 171.123 333.879 171.304 334.189 171.464C334.498 171.624 334.823 171.784 335.165 171.944C335.517 172.104 335.847 172.291 336.157 172.504C336.466 172.717 336.717 172.984 336.909 173.304C337.101 173.624 337.197 174.024 337.197 174.504C337.197 175.08 337.053 175.571 336.765 175.976C336.487 176.371 336.119 176.675 335.661 176.888C335.213 177.091 334.727 177.192 334.205 177.192ZM342.61 177.192C341.821 177.192 341.122 177.011 340.514 176.648C339.906 176.275 339.431 175.731 339.09 175.016C338.749 174.301 338.578 173.427 338.578 172.392C338.578 171.411 338.738 170.573 339.058 169.88C339.389 169.176 339.837 168.637 340.402 168.264C340.967 167.891 341.607 167.704 342.322 167.704C343.143 167.704 343.805 167.891 344.306 168.264C344.807 168.627 345.17 169.149 345.394 169.832C345.618 170.515 345.73 171.32 345.73 172.248V172.76H339.426L339.442 171.624L344.21 171.576C344.21 171.224 344.173 170.888 344.098 170.568C344.034 170.237 343.927 169.949 343.778 169.704C343.629 169.448 343.431 169.251 343.186 169.112C342.951 168.973 342.658 168.904 342.306 168.904C341.645 168.904 341.117 169.219 340.722 169.848C340.327 170.467 340.13 171.336 340.13 172.456C340.13 173.587 340.37 174.456 340.85 175.064C341.341 175.661 341.986 175.96 342.786 175.96C343.17 175.96 343.543 175.907 343.906 175.8C344.279 175.693 344.674 175.533 345.09 175.32L345.538 176.36C345.047 176.648 344.551 176.861 344.05 177C343.559 177.128 343.079 177.192 342.61 177.192Z" fill="#232931"/>
</svg>
