<svg width="30" height="47" viewBox="0 0 30 47" fill="none" xmlns="http://www.w3.org/2000/svg">
<path d="M8.89658 41.5173L9.71053 42.7236C23.3387 36.2963 29.1996 26.3846 26.2266 14.7109C25.0685 10.1612 19.5083 1.36253 9.71318 3.20446L9.67351 3.21193C8.01147 3.60214 6.48931 4.43019 5.27093 5.6069C4.37597 6.4881 3.71135 7.56882 3.33378 8.75686C2.9562 9.9449 2.87687 11.205 3.10255 12.4297C3.65803 16.5957 6.53375 17.213 9.57811 17.8668C10.3786 18.0209 11.1688 18.2224 11.9445 18.4701C13.297 18.9086 14.5284 19.6471 15.5433 20.6285C16.5582 21.6098 17.3292 22.8075 17.7965 24.1287C18.2707 25.8062 18.3336 27.5702 17.9801 29.2761C17.6265 30.9821 16.8665 32.5815 15.7623 33.9435C13.6685 36.6321 11.3735 39.1637 8.89658 41.5173ZM9.46844 46.0464C9.18022 46.0995 8.88245 46.0677 8.61258 45.955C8.34271 45.8423 8.11281 45.6538 7.95177 45.4131L5.73925 42.1349C5.5443 41.8468 5.45753 41.5011 5.49381 41.157C5.53009 40.8129 5.68717 40.492 5.93809 40.2492C8.57097 37.7609 11.0284 35.0995 13.2932 32.2834C14.1165 31.2848 14.6963 30.1144 14.9881 28.8618C15.2799 27.6093 15.2761 26.3078 14.9769 25.0569C14.6459 24.1687 14.1142 23.3657 13.4217 22.7084C12.7292 22.051 11.894 21.5564 10.9789 21.2616C10.3173 21.0558 9.6443 20.887 8.9632 20.7562C5.78645 20.074 0.985648 19.0434 0.153689 12.8044C-0.13718 11.1276 -0.0139631 9.40669 0.512985 7.78634C1.03993 6.16599 1.95522 4.69352 3.18193 3.49265C4.81113 1.90697 6.86186 0.803543 9.09961 0.308556L9.14683 0.299677C11.6088 -0.184991 14.1533 -0.080555 16.5655 0.604161C18.9777 1.28888 21.1865 2.53375 23.0055 4.23358C25.9295 6.86451 28.0445 10.2473 29.1105 13.9985C29.9709 17.0232 30.2103 20.1858 29.8148 23.3021C29.4193 26.4185 28.3967 29.4266 26.8066 32.1513C22.7549 38.3909 16.8031 43.2172 9.79762 45.944C9.69238 45.9906 9.58185 46.025 9.46844 46.0464Z" fill="white"/>
</svg>
