<svg width="20" height="17" viewBox="0 0 20 17" fill="none" xmlns="http://www.w3.org/2000/svg">
<path d="M6.47827 7.33228C8.20717 7.33228 9.60871 5.93074 9.60871 4.20185C9.60871 2.47295 8.20717 1.07141 6.47827 1.07141C4.74938 1.07141 3.34784 2.47295 3.34784 4.20185C3.34784 5.93074 4.74938 7.33228 6.47827 7.33228Z" stroke="white" stroke-width="2" stroke-linecap="round" stroke-linejoin="round"/>
<path d="M1.78262 15.1584V13.5932C1.78262 12.763 2.11244 11.9667 2.69951 11.3797C3.28658 10.7926 4.08282 10.4628 4.91306 10.4628H8.04349C8.87374 10.4628 9.66997 10.7926 10.257 11.3797C10.8441 11.9667 11.1739 12.763 11.1739 13.5932V15.1584" stroke="white" stroke-width="2" stroke-linecap="round" stroke-linejoin="round"/>
<path d="M15.087 8.89747V2.6366M18.2174 5.76703H11.9565" stroke="white" stroke-width="2" stroke-linecap="round" stroke-linejoin="round"/>
</svg>
