<svg width="17" height="17" viewBox="0 0 17 17" fill="none" xmlns="http://www.w3.org/2000/svg">
    <path d="M5.63423 4.92676H3.21961C2.79268 4.92676 2.38323 5.09636 2.08135 5.39825C1.77946 5.70014 1.60986 6.10959 1.60986 6.53652V13.7805C1.60986 14.2074 1.77946 14.6169 2.08135 14.9187C2.38323 15.2206 2.79268 15.3902 3.21961 15.3902H10.4635C10.8904 15.3902 11.2999 15.2206 11.6017 14.9187C11.9036 14.6169 12.0732 14.2074 12.0732 13.7805V11.3658" stroke="white" stroke-width="1.5" stroke-linecap="round" stroke-linejoin="round"/>
    <path d="M5.63428 11.366H8.0489L14.8903 4.52448C15.2105 4.20428 15.3904 3.76999 15.3904 3.31715C15.3904 2.86432 15.2105 2.43003 14.8903 2.10983C14.5701 1.78963 14.1358 1.60974 13.683 1.60974C13.2302 1.60974 12.7959 1.78963 12.4757 2.10983L5.63428 8.95133V11.366Z" stroke="white" stroke-width="1.5" stroke-linecap="round" stroke-linejoin="round"/>
    <path d="M11.2686 3.31702L13.6832 5.73166" stroke="white" stroke-width="1.5" stroke-linecap="round" stroke-linejoin="round"/>
</svg>
