<svg width="40" height="40" viewBox="0 0 40 40" fill="none" xmlns="http://www.w3.org/2000/svg">
  <!-- Circle Background -->
  <circle cx="20" cy="20" r="20" fill="#D6F4FF"/>

  <!-- New Application Icon (Centered) -->
  <g transform="translate(10, 8)"> <!-- Adjust the position further for better centering -->
    <path d="M11.3684 2.83569V6.62517C11.3684 6.87642 11.4683 7.11739 11.6459 7.29506C11.8236 7.47272 12.0645 7.57254 12.3158 7.57254H16.1053" stroke="#00AEEF" stroke-width="1.5" stroke-linecap="round" stroke-linejoin="round"/>
    <path d="M14.2105 16.0989H7.57894C7.07643 16.0989 6.59449 15.8992 6.23916 15.5439C5.88383 15.1886 5.6842 14.7066 5.6842 14.2041V4.73043C5.6842 4.22791 5.88383 3.74598 6.23916 3.39065C6.59449 3.03532 7.07643 2.83569 7.57894 2.83569H11.3684L16.1053 7.57254V14.2041C16.1053 14.7066 15.9056 15.1886 15.5503 15.5439C15.195 15.8992 14.713 16.0989 14.2105 16.0989Z" stroke="#00AEEF" stroke-width="1.5" stroke-linecap="round" stroke-linejoin="round"/>
    <path d="M12.3158 16.0988V17.9935C12.3158 18.4961 12.1162 18.978 11.7608 19.3333C11.4055 19.6887 10.9236 19.8883 10.4211 19.8883H3.78948C3.28697 19.8883 2.80503 19.6887 2.4497 19.3333C2.09437 18.978 1.89474 18.4961 1.89474 17.9935V8.51986C1.89474 8.01734 2.09437 7.53541 2.4497 7.18008C2.80503 6.82475 3.28697 6.62512 3.78948 6.62512H5.68422" stroke="#00AEEF" stroke-width="1.5" stroke-linecap="round" stroke-linejoin="round"/>
  </g>
</svg>
