<svg width="22" height="22" viewBox="0 0 22 22" fill="none" xmlns="http://www.w3.org/2000/svg">
<path d="M2.75 5.5H4.58333H19.25" stroke="#232931" stroke-width="1.5" stroke-linecap="round" stroke-linejoin="round"/>
<path d="M17.4168 5.50004V18.3334C17.4168 18.8196 17.2237 19.2859 16.8799 19.6297C16.536 19.9736 16.0697 20.1667 15.5835 20.1667H6.41683C5.9306 20.1667 5.46428 19.9736 5.12047 19.6297C4.77665 19.2859 4.5835 18.8196 4.5835 18.3334V5.50004M7.3335 5.50004V3.66671C7.3335 3.18048 7.52665 2.71416 7.87047 2.37034C8.21428 2.02653 8.6806 1.83337 9.16683 1.83337H12.8335C13.3197 1.83337 13.786 2.02653 14.1299 2.37034C14.4737 2.71416 14.6668 3.18048 14.6668 3.66671V5.50004" stroke="#232931" stroke-width="1.5" stroke-linecap="round" stroke-linejoin="round"/>
<path d="M9.1665 10.0834V15.5834" stroke="#232931" stroke-width="1.5" stroke-linecap="round" stroke-linejoin="round"/>
<path d="M12.8335 10.0834V15.5834" stroke="#232931" stroke-width="1.5" stroke-linecap="round" stroke-linejoin="round"/>
</svg>
