<svg width="18" height="18" viewBox="0 0 18 18" fill="none" xmlns="http://www.w3.org/2000/svg">
<path d="M6.26087 7.89747C7.98976 7.89747 9.3913 6.49592 9.3913 4.76703C9.3913 3.03814 7.98976 1.6366 6.26087 1.6366C4.53198 1.6366 3.13043 3.03814 3.13043 4.76703C3.13043 6.49592 4.53198 7.89747 6.26087 7.89747Z" stroke="white" stroke-width="2" stroke-linecap="round" stroke-linejoin="round"/>
<path d="M1.56522 15.7236V14.1584C1.56522 13.3281 1.89503 12.5319 2.4821 11.9448C3.06917 11.3578 3.86541 11.028 4.69565 11.028H7.82609C8.65633 11.028 9.45257 11.3578 10.0396 11.9448C10.6267 12.5319 10.9565 13.3281 10.9565 14.1584V15.7236" stroke="white" stroke-width="2" stroke-linecap="round" stroke-linejoin="round"/>
<path d="M11.7391 7.89749L13.3044 9.46271L16.4348 6.33228" stroke="white" stroke-width="2" stroke-linecap="round" stroke-linejoin="round"/>
</svg>
