<svg width="30" height="38" viewBox="0 0 30 38" fill="none" xmlns="http://www.w3.org/2000/svg">
<path d="M18.6586 2.19507V9.57866C18.6586 10.0682 18.8513 10.5377 19.1943 10.8839C19.5374 11.2301 20.0027 11.4246 20.4878 11.4246H27.8049" stroke="#232931" stroke-width="2" stroke-linecap="round" stroke-linejoin="round"/>
<path d="M24.1463 35.4212H5.85367C4.88336 35.4212 3.9528 35.0323 3.26669 34.3399C2.58058 33.6476 2.19513 32.7086 2.19513 31.7294V5.88686C2.19513 4.90774 2.58058 3.96872 3.26669 3.27637C3.9528 2.58402 4.88336 2.19507 5.85367 2.19507H18.6585L27.8049 11.4246V31.7294C27.8049 32.7086 27.4194 33.6476 26.7333 34.3399C26.0472 35.0323 25.1167 35.4212 24.1463 35.4212Z" stroke="#232931" stroke-width="2" stroke-linecap="round" stroke-linejoin="round"/>
<path d="M11 14.5H22" stroke="#00AEEF" stroke-linecap="round"/>
<path d="M5 14.1819L22 14.1819" stroke="#00AEEF" stroke-width="2" stroke-linecap="round"/>
<path d="M5 20.1819L22 20.1819" stroke="#00AEEF" stroke-width="2" stroke-linecap="round"/>
<path d="M5 26.1819L17 26.1819" stroke="#00AEEF" stroke-width="2" stroke-linecap="round"/>
</svg>
