<svg width="40" height="40" viewBox="0 0 40 40" fill="none" xmlns="http://www.w3.org/2000/svg">
  <!-- Circle Background -->
  <circle cx="20" cy="20" r="20" fill="#D6F4FF"/>

  <!-- New Application Icon (Centered and Scaled) -->
  <g transform="translate(8, 8) scale(1.5)"> <!-- Scale factor adjusted -->
    <path 
      d="M16 6.28a1.23 1.23 0 0 0-.62-1.07l-6.74-4a1.27 1.27 0 0 0-1.28 0l-6.75 4a1.25 1.25 0 0 0 0 2.15l1.92 1.12v2.81a1.28 1.28 0 0 0 .62 1.09l4.25 2.45a1.28 1.28 0 0 0 1.24 0l4.25-2.45a1.28 1.28 0 0 0 .62-1.09V8.45l1.24-.73v2.72H16V6.28zm-3.73 5L8 13.74l-4.22-2.45V9.22l3.58 2.13a1.29 1.29 0 0 0 1.28 0l3.62-2.16zM8 10.27l-6.75-4L8 2.26l6.75 4z"
      fill="#00AEEF" 
    />
  </g>
</svg>
