<svg width="18" height="23" viewBox="0 0 18 23" fill="none" xmlns="http://www.w3.org/2000/svg">
<path d="M11 2.94092V6.94092C11 7.20613 11.1054 7.46049 11.2929 7.64802C11.4804 7.83556 11.7348 7.94092 12 7.94092H16" stroke="white" stroke-width="2" stroke-linecap="round" stroke-linejoin="round"/>
<path d="M14 20.9409H4C3.46957 20.9409 2.96086 20.7302 2.58579 20.3551C2.21071 19.9801 2 19.4714 2 18.9409V4.94092C2 4.41048 2.21071 3.90178 2.58579 3.5267C2.96086 3.15163 3.46957 2.94092 4 2.94092H11L16 7.94092V18.9409C16 19.4714 15.7893 19.9801 15.4142 20.3551C15.0391 20.7302 14.5304 20.9409 14 20.9409Z" stroke="white" stroke-width="2" stroke-linecap="round" stroke-linejoin="round"/>
<path d="M6 14.9409L8 16.9409L12 12.9409" stroke="white" stroke-width="2" stroke-linecap="round" stroke-linejoin="round"/>
</svg>
