<svg width="20" height="22" viewBox="0 0 20 22" fill="none" xmlns="http://www.w3.org/2000/svg">
<path d="M8 4C8 3.46957 8.21071 2.96086 8.58579 2.58579C8.96086 2.21071 9.46957 2 10 2C10.5304 2 11.0391 2.21071 11.4142 2.58579C11.7893 2.96086 12 3.46957 12 4C13.1484 4.54303 14.1274 5.38833 14.8321 6.4453C15.5367 7.50227 15.9404 8.73107 16 10V13C16.0753 13.6217 16.2954 14.2171 16.6428 14.7381C16.9902 15.2592 17.4551 15.6914 18 16H2C2.54494 15.6914 3.00981 15.2592 3.35719 14.7381C3.70457 14.2171 3.92474 13.6217 4 13V10C4.05956 8.73107 4.4633 7.50227 5.16795 6.4453C5.8726 5.38833 6.85159 4.54303 8 4" stroke="#232931" stroke-width="2" stroke-linecap="round" stroke-linejoin="round"/>
<path d="M7 16V17C7 17.7956 7.31607 18.5587 7.87868 19.1213C8.44129 19.6839 9.20435 20 10 20C10.7956 20 11.5587 19.6839 12.1213 19.1213C12.6839 18.5587 13 17.7956 13 17V16" stroke="#232931" stroke-width="2" stroke-linecap="round" stroke-linejoin="round"/>
</svg>
