<svg width="40" height="40" viewBox="0 0 40 40" fill="none" xmlns="http://www.w3.org/2000/svg">
<circle cx="20" cy="20" r="20" fill="#D6F4FF"/>
<path d="M19.6838 18.7065C21.8754 18.7065 23.6521 16.9245 23.6521 14.7264C23.6521 12.5282 21.8754 10.7463 19.6838 10.7463C17.4922 10.7463 15.7156 12.5282 15.7156 14.7264C15.7156 16.9245 17.4922 18.7065 19.6838 18.7065Z" fill="white" stroke="#00AEEF" stroke-width="1.5" stroke-linecap="round" stroke-linejoin="round"/>
<path d="M13.7314 28.6567V26.6666C13.7314 25.611 14.1495 24.5987 14.8937 23.8523C15.6379 23.1059 16.6473 22.6865 17.6997 22.6865H21.668C22.7204 22.6865 23.7297 23.1059 24.4739 23.8523C25.2181 24.5987 25.6362 25.611 25.6362 26.6666V28.6567" fill="white"/>
<path d="M13.7314 28.6567V26.6666C13.7314 25.611 14.1495 24.5987 14.8937 23.8523C15.6379 23.1059 16.6473 22.6865 17.6997 22.6865H21.668C22.7204 22.6865 23.7297 23.1059 24.4739 23.8523C25.2181 24.5987 25.6362 25.611 25.6362 26.6666V28.6567" stroke="#00AEEF" stroke-width="1.5" stroke-linecap="round" stroke-linejoin="round"/>
</svg>
