<svg xmlns="http://www.w3.org/2000/svg" id="Layer_1" data-name="Layer 1" viewBox="0 0 222.64187 347.83047"><path d="M216.04848,105.64965c-7.90002-28.29999-23.59998-53.79999-45.29999-73.70001C143.34847,5.94964,104.94845-5.15033,67.94845,2.24969l-.39996,.09998c-16.60004,3.70001-31.79999,12-43.90002,24C5.14846,44.74969-3.25151,70.9497,1.14846,96.64965c6.20001,47.10004,41.70001,54.80005,65.29999,60,5,1,10,2.20001,14.90002,3.80005,13.70001,4.59998,24.59998,15.09998,29.59998,28.69995,4.5,19.20001-.09998,39.30005-12.5,54.60004-16.79999,21.20001-35,41.29999-54.5,60.09998-3.89996,3.70001-4.5,9.70001-1.5,14.20001l16.40002,24.79999c2.40002,3.70001,6.79999,5.59998,11.20001,4.79999,.79999-.09998,1.59998-.40002,2.79999-.79999,51.90002-20.59998,96.10004-57,126.10004-104.09998,23.79999-41.60004,30-91,17.09998-137.10004ZM71.74849,322.54968l-6-9.10004c18.39996-17.70001,35.39996-36.79999,50.89996-57.09998,16.43047-20.68653,22.08446-47.83889,15.31364-73.31184-.13959-.52515-.30146-1.0466-.48551-1.55786-7.13892-19.83131-23.0867-35.31561-43.12812-41.93028-5.70001-1.90002-11.59998-3.40002-17.5-4.60004-22.59998-5-43.90002-9.59998-48-41.09998-3.40002-18.70001,2.59998-38,16.09998-51.5,9-8.90002,20.30005-15.20001,32.60004-18.10004l.29999-.09998c72.59998-13.89996,113.79999,52.5,122.40002,86.90002,22,88.09998-21.5,163-122.5,211.5Z" style="fill: #00AEEF;"></path></svg>