<svg width="19" height="19" viewBox="0 0 19 19" fill="none" xmlns="http://www.w3.org/2000/svg">
<path d="M7.96249 3.49385C8.3304 1.97731 10.4878 1.97731 10.8557 3.49385C10.9109 3.72168 11.0191 3.93325 11.1715 4.11135C11.3239 4.28945 11.5163 4.42905 11.7328 4.51877C11.9494 4.6085 12.1841 4.64582 12.4178 4.6277C12.6515 4.60957 12.8777 4.53652 13.0778 4.41449C14.4104 3.60267 15.9364 5.12785 15.1246 6.46131C15.0028 6.66137 14.9298 6.88737 14.9118 7.12093C14.8937 7.35449 14.931 7.58902 15.0206 7.80545C15.1102 8.02189 15.2496 8.21413 15.4275 8.36654C15.6054 8.51894 15.8168 8.62723 16.0444 8.68258C17.5609 9.05049 17.5609 11.2079 16.0444 11.5758C15.8166 11.631 15.605 11.7392 15.4269 11.8916C15.2488 12.044 15.1092 12.2363 15.0195 12.4529C14.9298 12.6695 14.8924 12.9042 14.9106 13.1379C14.9287 13.3716 15.0017 13.5977 15.1238 13.7979C15.9356 15.1305 14.4104 16.6565 13.0769 15.8447C12.8769 15.7229 12.6509 15.6499 12.4173 15.6318C12.1838 15.6138 11.9492 15.6511 11.7328 15.7407C11.5164 15.8303 11.3241 15.9697 11.1717 16.1476C11.0193 16.3255 10.911 16.5369 10.8557 16.7645C10.4878 18.281 8.3304 18.281 7.96249 16.7645C7.90729 16.5367 7.79907 16.3251 7.64665 16.147C7.49422 15.9689 7.3019 15.8293 7.08533 15.7396C6.86877 15.6498 6.63407 15.6125 6.40036 15.6306C6.16664 15.6488 5.9405 15.7218 5.74035 15.8439C4.40776 16.6557 2.88172 15.1305 3.69353 13.797C3.81539 13.597 3.88833 13.371 3.90641 13.1374C3.92449 12.9039 3.8872 12.6693 3.79758 12.4529C3.70796 12.2365 3.56853 12.0442 3.39063 11.8918C3.21274 11.7394 3.00138 11.6311 2.77376 11.5758C1.25722 11.2079 1.25722 9.05049 2.77376 8.68258C3.00159 8.62738 3.21316 8.51916 3.39126 8.36674C3.56936 8.21432 3.70895 8.022 3.79868 7.80543C3.8884 7.58886 3.92572 7.35417 3.9076 7.12045C3.88948 6.88673 3.81643 6.66059 3.6944 6.46044C2.88258 5.12785 4.40776 3.60181 5.74122 4.41363C6.60485 4.93872 7.72412 4.47408 7.96249 3.49385Z" stroke="white" stroke-width="2" stroke-linecap="round" stroke-linejoin="round"/>
<path d="M9.40909 12.72C10.84 12.72 12 11.56 12 10.1291C12 8.6982 10.84 7.53821 9.40909 7.53821C7.97817 7.53821 6.81818 8.6982 6.81818 10.1291C6.81818 11.56 7.97817 12.72 9.40909 12.72Z" stroke="white" stroke-width="2" stroke-linecap="round" stroke-linejoin="round"/>
</svg>
