<svg width="18" height="23" viewBox="0 0 18 23" fill="none" xmlns="http://www.w3.org/2000/svg">
<path d="M11 2.22009V6.22009C11 6.48531 11.1054 6.73966 11.2929 6.9272C11.4804 7.11474 11.7348 7.22009 12 7.22009H16" stroke="white" stroke-width="2" stroke-linecap="round" stroke-linejoin="round"/>
<path d="M14 20.2201H4C3.46957 20.2201 2.96086 20.0094 2.58579 19.6343C2.21071 19.2592 2 18.7505 2 18.2201V4.22009C2 3.68966 2.21071 3.18095 2.58579 2.80588C2.96086 2.43081 3.46957 2.22009 4 2.22009H11L16 7.22009V18.2201C16 18.7505 15.7893 19.2592 15.4142 19.6343C15.0391 20.0094 14.5304 20.2201 14 20.2201Z" stroke="white" stroke-width="2" stroke-linecap="round" stroke-linejoin="round"/>
</svg>
